<svg width="8" height="12" viewBox="0 0 8 12" fill="none" xmlns="http://www.w3.org/2000/svg">
<path d="M1.02906 0.522761L1.02906 0.522762C0.915512 0.635018 0.850981 0.786818 0.850981 0.94599C0.850981 1.10514 0.915493 1.25692 1.02901 1.36917L1.02896 1.36911L1.13452 1.26255L1.02906 1.36922L1.02906 0.522761ZM1.02906 0.522761L1.02923 0.522598M1.02906 0.522761L1.02923 0.522598M1.02923 0.522598C1.08502 0.467617 1.15132 0.424215 1.22411 0.394679C1.29689 0.365147 1.37487 0.35 1.45351 0.35C1.53216 0.35 1.61013 0.365147 1.68291 0.394679C1.75571 0.424215 1.82201 0.467617 1.87779 0.522598L1.87806 0.522857M1.02923 0.522598L1.87806 0.522857M1.87806 0.522857L6.96623 5.56217L6.96624 5.56218M1.87806 0.522857L6.96624 5.56218M6.96624 5.56218C7.08345 5.67829 7.15 5.83513 7.15 5.99951C7.15 6.1639 7.08345 6.32074 6.96624 6.43685L6.96624 6.43685M6.96624 5.56218L6.96624 6.43685M6.96624 6.43685L1.87911 11.4761L6.96624 6.43685ZM1.02906 10.6298L5.70331 5.99951L1.77349 11.3696C1.73187 11.4109 1.68212 11.4437 1.62716 11.4661C1.57221 11.4885 1.51316 11.5 1.45351 11.5C1.39386 11.5 1.33482 11.4885 1.27986 11.4661C1.2249 11.4437 1.17515 11.4109 1.13354 11.3696L1.02808 11.4763C1.02803 11.4762 1.02797 11.4762 1.02791 11.4761C0.914466 11.3639 0.85 11.2121 0.85 11.053C0.85 10.893 0.916117 10.7415 1.02906 10.6298Z" fill="#0568C3" stroke="#0568C3" stroke-width="0.3"/>
</svg>
