<svg width="90" height="90" viewBox="0 0 90 90" fill="none" xmlns="http://www.w3.org/2000/svg">
<path d="M60.106 85.7071H17.6501C17.3321 85.7071 17.0141 85.3891 17.0141 85.071V9.22295C17.0141 8.90493 17.3321 8.58691 17.6501 8.58691H60.106C60.424 8.58691 60.742 8.90493 60.742 9.22295V85.071C60.583 85.3891 60.424 85.7071 60.106 85.7071ZM18.2862 84.435H59.4699V9.859H18.2862V84.435Z" fill="#0568C3"/>
<path d="M17.6502 85.7078H0.636041C0.318019 85.7078 7.62939e-06 85.3898 7.62939e-06 85.0718V28.464C7.62939e-06 28.305 0.159038 27.9869 0.318048 27.9869C0.477059 27.8279 0.795071 27.987 0.954081 28.146L17.9682 44.047C18.1273 44.206 18.1272 44.3651 18.1272 44.5241V85.0718C18.2862 85.3898 17.9682 85.7078 17.6502 85.7078ZM1.27212 84.4357H17.0142V44.6831L1.27212 29.8951V84.4357Z" fill="#0568C3"/>
<path d="M84.1166 85.7078H71.0777C70.7597 85.7078 70.4417 85.3897 70.4417 85.0717V26.3968C70.4417 26.2378 70.6007 25.9197 70.7597 25.9197C70.9187 25.7607 71.2367 25.9198 71.3957 26.0788L84.4346 37.6865C84.7527 37.6865 84.7527 37.8456 84.7527 38.0046V85.0717C84.7527 85.3897 84.4346 85.7078 84.1166 85.7078ZM71.7138 84.4357H83.6396V38.3226L71.7138 27.8279V84.4357Z" fill="#0568C3"/>
<path d="M71.0778 85.7067H59.947C59.629 85.7067 59.311 85.3887 59.311 85.0707V9.85865H49.7703C49.4523 9.85865 49.1343 9.54062 49.1343 9.2226V5.88339H36.5724C36.2544 5.88339 35.9364 5.56535 35.9364 5.24733V0.636033C35.9364 0.318012 36.2544 0 36.5724 0H71.0778C71.3958 0 71.7138 0.318012 71.7138 0.636033V85.0707C71.7138 85.3887 71.3958 85.7067 71.0778 85.7067ZM60.5831 84.4346H70.6007V1.11307H37.3675V4.45228H49.9293C50.2473 4.45228 50.5654 4.77031 50.5654 5.08834V8.42754H60.106C60.4241 8.42754 60.7421 8.74558 60.7421 9.0636L60.5831 84.4346Z" fill="#0568C3"/>
<path d="M23.3744 85.7071C23.0564 85.7071 22.7384 85.3891 22.7384 85.0711V20.9898C22.7384 20.6717 23.0564 20.3537 23.3744 20.3537C23.6925 20.3537 24.0105 20.6717 24.0105 20.9898V85.0711C24.0105 85.3891 23.6925 85.7071 23.3744 85.7071Z" fill="#0568C3"/>
<path d="M29.576 85.7071C29.258 85.7071 28.94 85.3891 28.94 85.0711V20.9898C28.94 20.6717 29.258 20.3537 29.576 20.3537C29.894 20.3537 30.212 20.6717 30.212 20.9898V85.0711C30.212 85.3891 29.894 85.7071 29.576 85.7071Z" fill="#0568C3"/>
<path d="M35.9362 85.7071C35.6182 85.7071 35.3002 85.3891 35.3002 85.0711V20.9898C35.3002 20.6717 35.6182 20.3537 35.9362 20.3537C36.2542 20.3537 36.5722 20.6717 36.5722 20.9898V85.0711C36.5722 85.3891 36.2542 85.7071 35.9362 85.7071Z" fill="#0568C3"/>
<path d="M42.1378 85.7071C41.8198 85.7071 41.5017 85.3891 41.5017 85.0711V20.9898C41.5017 20.6717 41.8198 20.3537 42.1378 20.3537C42.4558 20.3537 42.7738 20.6717 42.7738 20.9898V85.0711C42.6148 85.3891 42.4558 85.7071 42.1378 85.7071Z" fill="#0568C3"/>
<path d="M48.3393 85.7071C48.0213 85.7071 47.7033 85.3891 47.7033 85.0711V20.9898C47.7033 20.6717 48.0213 20.3537 48.3393 20.3537C48.6574 20.3537 48.9754 20.6717 48.9754 20.9898V85.0711C48.8164 85.3891 48.6574 85.7071 48.3393 85.7071Z" fill="#0568C3"/>
<path d="M54.6995 85.7071C54.3815 85.7071 54.0635 85.3891 54.0635 85.0711V20.9898C54.0635 20.6717 54.3815 20.3537 54.6995 20.3537C55.0176 20.3537 55.3356 20.6717 55.3356 20.9898V85.0711C55.1766 85.3891 55.0176 85.7071 54.6995 85.7071Z" fill="#0568C3"/>
<path d="M6.99647 46.1143C6.67845 46.1143 6.36044 45.7963 6.36044 45.4783V40.549C6.36044 40.2309 6.67845 39.9129 6.99647 39.9129C7.31449 39.9129 7.63255 40.2309 7.63255 40.549V45.4783C7.63255 45.7963 7.31449 46.1143 6.99647 46.1143Z" fill="#0568C3"/>
<path d="M6.99647 57.7211C6.67845 57.7211 6.36044 57.4031 6.36044 57.0851V52.1557C6.36044 51.8377 6.67845 51.5197 6.99647 51.5197C7.31449 51.5197 7.63255 51.8377 7.63255 52.1557V57.0851C7.63255 57.4031 7.31449 57.7211 6.99647 57.7211Z" fill="#0568C3"/>
<path d="M6.99647 69.328C6.67845 69.328 6.36044 69.01 6.36044 68.692V63.7626C6.36044 63.4446 6.67845 63.1266 6.99647 63.1266C7.31449 63.1266 7.63255 63.4446 7.63255 63.7626V68.692C7.63255 69.01 7.31449 69.328 6.99647 69.328Z" fill="#0568C3"/>
<path d="M6.99647 80.7766C6.67845 80.7766 6.36044 80.4586 6.36044 80.1406V75.2112C6.36044 74.8932 6.67845 74.5752 6.99647 74.5752C7.31449 74.5752 7.63255 74.8932 7.63255 75.2112V80.1406C7.63255 80.6176 7.31449 80.7766 6.99647 80.7766Z" fill="#0568C3"/>
<path d="M12.2438 57.7211C11.9257 57.7211 11.6077 57.4031 11.6077 57.0851V52.1557C11.6077 51.8377 11.9257 51.5197 12.2438 51.5197C12.5618 51.5197 12.8798 51.8377 12.8798 52.1557V57.0851C12.8798 57.4031 12.5618 57.7211 12.2438 57.7211Z" fill="#0568C3"/>
<path d="M12.2438 69.328C11.9257 69.328 11.6077 69.01 11.6077 68.692V63.7626C11.6077 63.4446 11.9257 63.1266 12.2438 63.1266C12.5618 63.1266 12.8798 63.4446 12.8798 63.7626V68.692C12.8798 69.01 12.5618 69.328 12.2438 69.328Z" fill="#0568C3"/>
<path d="M12.2438 80.7766C11.9257 80.7766 11.6077 80.4586 11.6077 80.1406V75.2112C11.6077 74.8932 11.9257 74.5752 12.2438 74.5752C12.5618 74.5752 12.8798 74.8932 12.8798 75.2112V80.1406C12.8798 80.6176 12.5618 80.7766 12.2438 80.7766Z" fill="#0568C3"/>
<path d="M75.371 44.0471C75.053 44.0471 74.7349 43.7291 74.7349 43.4111V38.4818C74.7349 38.1637 75.053 37.8457 75.371 37.8457C75.689 37.8457 76.0071 38.1637 76.0071 38.4818V43.4111C76.0071 43.8881 75.689 44.0471 75.371 44.0471Z" fill="#0568C3"/>
<path d="M79.9824 44.0471C79.6644 44.0471 79.3463 43.7291 79.3463 43.4111V38.4818C79.3463 38.1637 79.6644 37.8457 79.9824 37.8457C80.3004 37.8457 80.6185 38.1637 80.6185 38.4818V43.4111C80.6185 43.8881 80.3004 44.0471 79.9824 44.0471Z" fill="#0568C3"/>
<path d="M75.371 54.3813C75.053 54.3813 74.7349 54.0633 74.7349 53.7452V48.8159C74.7349 48.4979 75.053 48.1799 75.371 48.1799C75.689 48.1799 76.0071 48.4979 76.0071 48.8159V53.9043C76.0071 54.2223 75.689 54.3813 75.371 54.3813Z" fill="#0568C3"/>
<path d="M79.9824 54.3813C79.6644 54.3813 79.3463 54.0633 79.3463 53.7452V48.8159C79.3463 48.4979 79.6644 48.1799 79.9824 48.1799C80.3004 48.1799 80.6185 48.4979 80.6185 48.8159V53.9043C80.6185 54.2223 80.3004 54.3813 79.9824 54.3813Z" fill="#0568C3"/>
<path d="M75.371 64.5572C75.053 64.5572 74.7349 64.2392 74.7349 63.9212V58.9919C74.7349 58.6738 75.053 58.3558 75.371 58.3558C75.689 58.3558 76.0071 58.6738 76.0071 58.9919V63.9212C76.0071 64.3982 75.689 64.5572 75.371 64.5572Z" fill="#0568C3"/>
<path d="M79.9824 64.5572C79.6644 64.5572 79.3463 64.2392 79.3463 63.9212V58.9919C79.3463 58.6738 79.6644 58.3558 79.9824 58.3558C80.3004 58.3558 80.6185 58.6738 80.6185 58.9919V63.9212C80.6185 64.3982 80.3004 64.5572 79.9824 64.5572Z" fill="#0568C3"/>
<path d="M75.371 74.8932C75.053 74.8932 74.7349 74.5752 74.7349 74.2571V69.3278C74.7349 69.0098 75.053 68.6918 75.371 68.6918C75.689 68.6918 76.0071 69.0098 76.0071 69.3278V74.2571C76.0071 74.7342 75.689 74.8932 75.371 74.8932Z" fill="#0568C3"/>
<path d="M79.9824 74.8932C79.6644 74.8932 79.3463 74.5752 79.3463 74.2571V69.3278C79.3463 69.0098 79.6644 68.6918 79.9824 68.6918C80.3004 68.6918 80.6185 69.0098 80.6185 69.3278V74.2571C80.6185 74.7342 80.3004 74.8932 79.9824 74.8932Z" fill="#0568C3"/>
<path d="M75.371 85.0709C75.053 85.0709 74.735 84.7529 74.735 84.4349V79.5056C74.735 79.1875 75.053 78.8695 75.371 78.8695C75.6891 78.8695 76.0071 79.1875 76.0071 79.5056V84.4349C76.0071 84.9119 75.6891 85.0709 75.371 85.0709Z" fill="#0568C3"/>
<path d="M79.9823 85.0709C79.6643 85.0709 79.3463 84.7529 79.3463 84.4349V79.5056C79.3463 79.1875 79.6643 78.8695 79.9823 78.8695C80.3004 78.8695 80.6184 79.1875 80.6184 79.5056V84.4349C80.6184 84.9119 80.3004 85.0709 79.9823 85.0709Z" fill="#0568C3"/>
<path d="M49.7704 10.018H27.6679C27.3499 10.018 27.0319 9.70001 27.0319 9.38199V5.40672C27.0319 5.0887 27.3499 4.77069 27.6679 4.77069H49.7704C50.0884 4.77069 50.4064 5.0887 50.4064 5.40672V9.38199C50.4064 9.70001 50.0884 10.018 49.7704 10.018ZM28.304 8.58694H49.1343V5.72474H28.304V8.58694Z" fill="#0568C3"/>
<path d="M56.1307 89.9995H7.16175C6.84373 89.9995 6.52567 89.6814 6.52567 89.3634C6.52567 89.0454 6.84373 88.7274 7.16175 88.7274H56.1307C56.4487 88.7274 56.7667 89.0454 56.7667 89.3634C56.7667 89.6814 56.4487 89.9995 56.1307 89.9995Z" fill="#0568C3"/>
<path d="M88.658 89.9995H69.6085C69.2904 89.9995 68.9724 89.6814 68.9724 89.3634C68.9724 89.0454 69.2904 88.7274 69.6085 88.7274H88.658C88.976 88.7274 89.294 89.0454 89.294 89.3634C89.294 89.6814 88.976 89.9995 88.658 89.9995Z" fill="#0568C3"/>
</svg>
