<svg width="91" height="90" viewBox="0 0 91 90" fill="none" xmlns="http://www.w3.org/2000/svg">
<path d="M65.1679 83.2328L65.2079 83.7898H65.7664H83.6271C84.2185 83.7898 84.8504 84.3181 85.1011 85.0917C85.0577 85.7142 84.5092 86.2347 83.904 86.2347H83.895H83.8842H83.8717H83.8574H83.8413H83.8235H83.8039H83.7826H83.7596H83.7348H83.7084H83.6802H83.6503H83.6188H83.5855H83.5506H83.514H83.4757H83.4358H83.3942H83.351H83.3061H83.2596H83.2115H83.1618H83.1104H83.0575H83.003H82.9468H82.8891H82.8298H82.769H82.7066H82.6426H82.5771H82.51H82.4414H82.3713H82.2997H82.2265H82.1519H82.0757H81.9981H81.9189H81.8383H81.7563H81.6727H81.5877H81.5013H81.4134H81.3241H81.2333H81.1411H81.0475H80.9525H80.8561H80.7583H80.6592H80.5586H80.4567H80.3534H80.2487H80.1427H80.0354H79.9267H79.8166H79.7053H79.5926H79.4787H79.3634H79.2468H79.1289H79.0098H78.8894H78.7677H78.6447H78.5205H78.3951H78.2684H78.1404H78.0113H77.8809H77.7493H77.6165H77.4825H77.3474H77.211H77.0734H76.9347H76.7949H76.6538H76.5116H76.3683H76.2238H76.0782H75.9315H75.7837H75.6347H75.4847H75.3336H75.1813H75.028H74.8737H74.7182H74.5617H74.4042H74.2456H74.0859H73.9253H73.7636H73.6009H73.4371H73.2724H73.1067H72.94H72.7723H72.6036H72.434H72.2634H72.0918H71.9193H71.7459H71.5715H71.3962H71.22H71.0428H70.8648H70.6858H70.506H70.3253H70.1437H69.9612H69.7779H69.5937H69.4086H69.2227H69.036H68.8485H68.6601H68.4709H68.2809H68.0901H67.8985H67.7062H67.513H67.3191H67.1244H66.9289H66.7327H66.5357H66.338H66.1396H65.9404H65.7406H65.54H65.3387H65.1367H64.934H64.7307H64.5267H64.322H64.1166H63.9106H63.7039H63.4966H63.2887H63.0801H62.8709H62.6611H62.4507H62.2397H62.0281H61.8159H61.6031H61.3898H61.1759H60.9614H60.7464H60.5309H60.3148H60.0981H59.881H59.6633H59.4452H59.2265H59.0074H58.7877H58.5676H58.347H58.1259H57.9044H57.6824H57.4599H57.2371H57.0138H56.79H56.5659H56.3413H56.1164H55.891H55.6653H55.4391H55.2126H54.9857H54.7585H54.5309H54.303H54.0747H53.8461H53.6171H53.3878H53.1583H52.9284H52.6982H52.4677H52.2369H52.0059H51.7746H51.543H51.3111H51.0791H50.8467H50.6141H50.3813H50.1483H49.9151H49.6816H49.448H49.2141H48.9801H48.7459H48.5115H48.2769H48.0422H47.8073H47.5723H47.3372H47.1019H46.8665H46.6309H46.3953H46.1595H45.9237H45.6877H45.4517H45.2156H44.9795H44.7432H44.5069H44.2706H44.0342H43.7978H43.5614H43.3249H43.0884H42.852H42.6155H42.379H42.1425H41.9061H41.6697H41.4333H41.197H40.9607H40.7244H40.4883H40.2522H40.0162H39.7802H39.5444H39.3086H39.073H38.8374H38.602H38.3667H38.1316H37.8966H37.6617H37.427H37.1924H36.958H36.7238H36.4898H36.2559H36.0223H35.7888H35.5556H35.3226H35.0898H34.8572H34.6248H34.3928H34.1609H33.9293H33.698H33.467H33.2362H33.0057H32.7755H32.5456H32.3161H32.0868H31.8578H31.6292H31.4009H31.173H30.9454H30.7182H30.4913H30.2648H30.0386H29.8129H29.5875H29.3626H29.138H28.9139H28.6901H28.4668H28.244H28.0215H27.7995H27.578H27.3569H27.1363H26.9162H26.6966H26.4774H26.2587H26.0406H25.8229H25.6058H25.3891H25.173H24.9575H24.7425H24.528H24.3141H24.1008H23.888H23.6758H23.4642H23.2532H23.0428H22.833H22.6238H22.4153H22.2073H22H21.7933H21.5873H21.3819H21.1772H20.9732H20.7699H20.5672H20.3652H20.1639H19.9633H19.7635H19.5643H19.3659H19.1682H18.9712H18.775H18.5795H18.3848H18.1909H17.9977H17.8054H17.6138H17.423H17.233H17.0438H16.8554H16.6679H16.4811H16.2953H16.1102H15.926H15.7427H15.5602H15.3786H15.1979H15.0181H14.8391H14.6611H14.4839H14.3077H14.1324H13.958H13.7846H13.6121H13.4405H13.2699H13.1003H12.9316H12.7639H12.5972H12.4315H12.2668H12.103H11.9403H11.7786H11.618H11.4583H11.2997H11.1422H10.9857H10.8302H10.6759H10.5226H10.3703H10.2192H10.0692H9.92022H9.77238H9.62567H9.48007H9.33561H9.19228H9.05009H8.90905H8.76917H8.63046H8.49291H8.35654H8.22136H8.08737H7.95458H7.82299H7.69261H7.56346H7.43553H7.30884H7.18338H7.05918H6.93623H6.81454H6.69411H6.57497H6.4571H6.34053H6.22525H6.11127H5.99861H5.88726H5.77724H5.66855H5.56119H5.45518H5.35052H5.24723H5.14529H5.04473H4.94555H4.84776H4.75136H4.65637H4.56278H4.4706H4.37985H4.29052H4.20263H4.11619H4.03119H3.94765H3.86557H3.78497H3.70584H3.62819H3.55204H3.47739H3.40424H3.3326H3.26248H3.19389H3.12683H3.06132H2.99734H2.93493H2.87407H2.81479H2.75707H2.70094H2.6464H2.59346H2.54212H2.49238H2.44427H2.39778H2.35292H2.30969H2.26812H2.22819H2.18992H2.15332H2.11839H2.08514H2.05358H2.02371H1.99554H1.96908H1.94433H1.9213H1.90001H1.88044H1.86262H1.84655H1.83224H1.81969H1.80891H1.7999C1.16911 86.2347 0.6 85.6692 0.6 85.0122C0.6 84.3552 1.16909 83.7898 1.7999 83.7898H19.6607H20.2229L20.2594 83.2288L25.3822 4.5839L25.4238 3.9449H24.7835H12.461H11.861V4.5449V11.6944C11.861 12.3514 11.2919 12.9169 10.6611 12.9169C10.0302 12.9169 9.4611 12.3514 9.4611 11.6944V2.72248C9.4611 2.06551 10.0303 1.50002 10.6611 1.50002H74.766C75.3968 1.50002 75.9659 2.06547 75.9659 2.72248V11.6944C75.9659 12.3514 75.3968 12.9169 74.766 12.9169C74.1352 12.9169 73.5661 12.3514 73.5661 11.6944V4.5449V3.9449H72.9661H60.6435H59.998L60.0451 4.58867C60.1659 6.24008 61.0373 19.7389 62.0321 35.1501C63.336 55.3497 64.852 78.8346 65.1679 83.2328ZM55.9232 30.0833L57.078 29.0384H55.5206H29.491H27.9336L29.0884 30.0833L42.1033 41.859L42.5059 42.2233L42.9084 41.859L55.9232 30.0833ZM29.8265 25.6513L28.3627 26.7337H30.1833H54.8283H56.6489L55.1851 25.6513L42.8626 16.5391L42.5059 16.2753L42.1491 16.5391L29.8265 25.6513ZM57.736 60.659H59.3074L58.1358 59.6116L42.7672 45.8733L42.3655 45.5143L41.9655 45.8751L26.7354 59.6134L25.5763 60.659H27.1372H57.736ZM44.7331 43.3531L44.2446 43.7967L44.7326 44.241L59.8242 57.9793L60.9218 58.9785L60.8269 57.4973L59.1654 31.5627L59.0858 30.3191L58.1633 31.1568L44.7331 43.3531ZM45.0552 14.2972L44.4089 14.7781L45.0548 15.2596L57.6542 24.6521L58.6914 25.4253L58.6117 24.1341L57.504 6.19019L57.4358 5.08442L56.547 5.7458L45.0552 14.2972ZM42.1501 13.0187L42.5059 13.2807L42.8616 13.0187L53.5226 5.16823L54.9935 4.08509H53.1669H31.8448H30.0181L31.489 5.16823L42.1501 13.0187ZM39.9568 15.2596L40.6027 14.7781L39.9564 14.2972L28.4646 5.7458L27.5758 5.08442L27.5076 6.19019L26.4 24.1341L26.3203 25.4253L27.3574 24.6521L39.9568 15.2596ZM26.8483 31.1568L25.9259 30.3191L25.8462 31.5627L24.1847 57.4973L24.0898 58.9785L25.1874 57.9793L40.2791 44.241L40.7671 43.7967L40.2785 43.3531L26.8483 31.1568ZM24.5243 64.1624L23.6927 63.6937L23.631 64.6463L22.5233 81.7492L22.452 82.8504L23.4151 82.3116L39.1989 73.4798L40.1314 72.9581L39.2005 72.4335L24.5243 64.1624ZM29.491 62.9636H27.1706L29.2002 64.0884L42.3534 71.3782L42.6458 71.5402L42.9375 71.3769L55.9523 64.0871L57.9582 62.9636H55.6591H29.491ZM61.5192 64.6463L61.4575 63.6937L60.6258 64.1624L45.9495 72.4335L45.0187 72.9581L45.9511 73.4798L61.7351 82.3116L62.6981 82.8504L62.6268 81.7492L61.5192 64.6463ZM27.6713 82.6683L25.7001 83.7898H27.968H57.0437H59.3116L57.3404 82.6683L42.8026 74.3973L42.5059 74.2285L42.2092 74.3973L27.6713 82.6683Z" fill="#0568C3" stroke="white" stroke-width="1.2"/>
<path d="M13.9842 18.3836H6.78452C6.15373 18.3836 5.58462 17.8181 5.58462 17.1611C5.58462 16.5041 6.15371 15.9387 6.78452 15.9387H13.9842C14.615 15.9387 15.1841 16.5041 15.1841 17.1611C15.1841 17.8181 14.615 18.3836 13.9842 18.3836Z" fill="#0568C3" stroke="white" stroke-width="1.2"/>
<path d="M13.9842 23.7115H6.78452C6.15371 23.7115 5.58462 23.1461 5.58462 22.4891C5.58462 21.8321 6.15373 21.2666 6.78452 21.2666H13.9842C14.615 21.2666 15.1841 21.8321 15.1841 22.4891C15.1841 23.1461 14.615 23.7115 13.9842 23.7115Z" fill="#0568C3" stroke="white" stroke-width="1.2"/>
<path d="M13.9842 29.0376H6.78452C6.15371 29.0376 5.58462 28.4722 5.58462 27.8152C5.58462 27.1582 6.15371 26.5928 6.78452 26.5928H13.9842C14.615 26.5928 15.1841 27.1582 15.1841 27.8152C15.1841 28.4722 14.615 29.0376 13.9842 29.0376Z" fill="#0568C3" stroke="white" stroke-width="1.2"/>
<path d="M71.0276 18.3836C70.3968 18.3836 69.8277 17.8181 69.8277 17.1611C69.8277 16.5041 70.3968 15.9387 71.0276 15.9387H78.2273C78.8581 15.9387 79.4272 16.5041 79.4272 17.1611C79.4272 17.8181 78.8581 18.3836 78.2273 18.3836H71.0276Z" fill="#0568C3" stroke="white" stroke-width="1.2"/>
<path d="M71.0276 21.2666H78.2273C78.8581 21.2666 79.4272 21.8321 79.4272 22.4891C79.4272 23.1461 78.8581 23.7115 78.2273 23.7115H71.0276C70.3968 23.7115 69.8277 23.1461 69.8277 22.4891C69.8277 21.8321 70.3968 21.2666 71.0276 21.2666Z" fill="#0568C3" stroke="white" stroke-width="1.2"/>
<path d="M78.2273 26.5928C78.8581 26.5928 79.4272 27.1582 79.4272 27.8152C79.4272 28.4722 78.8581 29.0376 78.2273 29.0376H71.0276C70.3968 29.0376 69.8277 28.4722 69.8277 27.8152C69.8277 27.1582 70.3968 26.5928 71.0276 26.5928H78.2273Z" fill="#0568C3" stroke="white" stroke-width="1.2"/>
<path d="M72.689 53.9925C70.1198 53.9925 68.0277 51.885 68.0277 49.2654C68.0277 46.656 70.2481 44.5383 72.689 44.5383C75.2582 44.5383 77.3503 46.6458 77.3503 49.2654C77.3503 51.885 75.2582 53.9925 72.689 53.9925ZM72.8275 51.6878C74.135 51.6878 75.2274 50.571 75.2274 49.2654C75.2274 47.9909 74.3034 46.843 72.8275 46.843C71.5199 46.843 70.4275 47.9598 70.4275 49.2654C70.4275 50.571 71.5199 51.6878 72.8275 51.6878Z" fill="#0568C3" stroke="white" stroke-width="1.2"/>
<path d="M13.2456 49.4271C13.2456 52.0467 11.1535 54.1543 8.58431 54.1543C6.01512 54.1543 3.92294 52.0467 3.92294 49.4271C3.92294 46.8075 6.01512 44.7 8.58431 44.7C11.1535 44.7 13.2456 46.8075 13.2456 49.4271ZM10.9842 49.4271C10.9842 48.1215 9.89188 47.0047 8.58431 47.0047C7.30758 47.0047 6.18432 47.9509 6.18432 49.4271C6.18432 50.7328 7.27676 51.8496 8.58431 51.8496C9.8919 51.8496 10.9842 50.7327 10.9842 49.4271Z" fill="#0568C3" stroke="white" stroke-width="1.2"/>
<path d="M9.83044 89.1H40.9829" stroke="#0568C3" stroke-width="1.5" stroke-linecap="round"/>
<path d="M63.1359 89.1L89.4425 89.1" stroke="#0568C3" stroke-width="1.5" stroke-linecap="round"/>
</svg>
