<svg width="29" height="52" viewBox="0 0 29 52" fill="none" xmlns="http://www.w3.org/2000/svg">
  <path d="M1.49935 1.48219L1.49951 1.48203C1.70077 1.28168 1.94078 1.12272 2.20539 1.01426C2.47 0.905814 2.754 0.85 3.0408 0.85C3.3276 0.85 3.6116 0.905814 3.87621 1.01426C4.14082 1.12272 4.38084 1.28168 4.58209 1.48203L4.58235 1.48229L27.4791 24.3882L27.4791 24.3882C27.9088 24.8182 28.15 25.3957 28.15 25.9978C28.15 26.5998 27.9088 27.1773 27.4791 27.6073L27.373 27.5013L27.4791 27.6073L4.58685 50.5132C4.38544 50.715 4.14483 50.8752 3.87934 50.9845C3.61385 51.0937 3.32874 51.15 3.0408 51.15C2.75286 51.15 2.46775 51.0937 2.20227 50.9845C1.93677 50.8752 1.69617 50.715 1.49476 50.5132C1.08184 50.1008 0.850002 49.5464 0.850002 48.9684C0.850002 48.3894 1.08689 47.8352 1.49927 47.4234C1.4993 47.4234 1.49932 47.4234 1.49935 47.4233L22.912 25.9978L1.49935 4.57226C1.08632 4.15982 0.854417 3.60536 0.854417 3.02723C0.854417 2.44909 1.08632 1.89464 1.49935 1.48219Z" fill="#0568C3" stroke="#0568C3" stroke-width="0.3" />
</svg>